<svg width="23" height="21" viewBox="0 0 23 21" fill="none" xmlns="http://www.w3.org/2000/svg">
<path d="M0.936985 0.5C0.417739 0.5 0 0.917969 0 1.4375C0 1.95703 0.417739 2.375 0.936985 2.375H2.97102L5.3252 14.7383C5.41109 15.1797 5.7976 15.5 6.24657 15.5H19.052C19.5713 15.5 19.989 15.082 19.989 14.5625C19.989 14.043 19.5713 13.625 19.052 13.625H7.02348L6.66821 11.75H19.0442C19.6025 11.75 20.0944 11.3789 20.2467 10.8398L22.3549 3.33984C22.5774 2.54297 21.9801 1.75 21.1524 1.75H4.76301L4.66931 1.26172C4.58342 0.820312 4.19691 0.5 3.74794 0.5H0.936985ZM6.87122 20.5C7.90581 20.5 8.7452 19.6602 8.7452 18.625C8.7452 17.5898 7.90581 16.75 6.87122 16.75C5.83664 16.75 4.99725 17.5898 4.99725 18.625C4.99725 19.6602 5.83664 20.5 6.87122 20.5ZM19.989 18.625C19.989 17.5898 19.1496 16.75 18.115 16.75C17.0805 16.75 16.2411 17.5898 16.2411 18.625C16.2411 19.6602 17.0805 20.5 18.115 20.5C19.1496 20.5 19.989 19.6602 19.989 18.625Z" fill="black"/>
</svg>
