<svg width="50" height="50" viewBox="0 0 50 50" fill="none" xmlns="http://www.w3.org/2000/svg">
<g clip-path="url(#clip0_117_1513)">
<path d="M45.0037 38.3063C44.5404 40.0355 42.7628 41.4375 41.0334 41.4375C39.304 41.4375 38.2778 40.0355 38.7411 38.3063C39.2045 36.5769 40.9821 35.1749 42.7115 35.1749C44.4409 35.1749 45.4671 36.5769 45.0037 38.3063Z" stroke="black" stroke-width="1.5" stroke-miterlimit="10" stroke-linecap="round" stroke-linejoin="round"/>
<path d="M41.8808 38.3066H41.8726" stroke="black" stroke-width="1.5" stroke-miterlimit="10" stroke-linecap="round" stroke-linejoin="round"/>
<path d="M20.7362 38.3063C20.2728 40.0355 18.4952 41.4375 16.7659 41.4375C15.0365 41.4375 14.0102 40.0355 14.4736 38.3063C14.9369 36.5769 16.7145 35.1749 18.4439 35.1749C20.1733 35.1749 21.1995 36.5769 20.7362 38.3063Z" stroke="black" stroke-width="1.5" stroke-miterlimit="10" stroke-linecap="round" stroke-linejoin="round"/>
<path d="M17.6132 38.3066H17.605" stroke="black" stroke-width="1.5" stroke-miterlimit="10" stroke-linecap="round" stroke-linejoin="round"/>
<path d="M20.7361 38.3066H38.7411" stroke="black" stroke-width="1.5" stroke-miterlimit="10" stroke-linecap="round" stroke-linejoin="round"/>
<path d="M32.8284 17.9532H37.9325C38.3647 17.9532 38.6213 18.3037 38.5055 18.736L33.2616 38.3066" stroke="black" stroke-width="1.5" stroke-miterlimit="10" stroke-linecap="round" stroke-linejoin="round"/>
<path d="M14.4738 38.3066H10.5596C10.1273 38.3066 9.87073 37.9562 9.98655 37.5238L11.4549 32.0438" stroke="black" stroke-width="1.5" stroke-miterlimit="10" stroke-linecap="round" stroke-linejoin="round"/>
<path d="M38.2957 19.5188H44.9281C45.6341 19.5188 46.1261 19.9914 46.1294 20.6726L46.1651 28.1299L48.812 30.0224C49.2078 30.3053 49.3597 30.8148 49.2124 31.3648L47.7718 36.7409C47.5402 37.6057 46.6514 38.3066 45.7867 38.3066H45.0039" stroke="black" stroke-width="1.5" stroke-miterlimit="10" stroke-linecap="round" stroke-linejoin="round"/>
<path d="M49.0305 32.0449H47.4648" stroke="black" stroke-width="1.5" stroke-miterlimit="10" stroke-linecap="round" stroke-linejoin="round"/>
<path d="M44.3333 32.0449H34.9395" stroke="black" stroke-width="1.5" stroke-miterlimit="10" stroke-linecap="round" stroke-linejoin="round"/>
<path d="M46.1649 28.1309H40.6851C39.8205 28.1309 39.3073 27.4299 39.539 26.5652L40.1682 24.2167C40.4 23.3521 41.2888 22.6511 42.1534 22.6511H46.0676" stroke="black" stroke-width="1.5" stroke-miterlimit="10" stroke-linecap="round" stroke-linejoin="round"/>
<path d="M29.697 19.5189C29.697 25.5717 24.7902 30.4785 18.7374 30.4785C12.6846 30.4785 7.77783 25.5717 7.77783 19.5189C7.77783 13.4662 12.6846 8.55938 18.7374 8.55938C24.7902 8.55938 29.697 13.4662 29.697 19.5189Z" stroke="black" stroke-width="1.5" stroke-miterlimit="10" stroke-linecap="round" stroke-linejoin="round"/>
<path d="M20.3031 19.5184C20.3031 20.383 19.6021 21.084 18.7375 21.084C17.8728 21.084 17.1719 20.383 17.1719 19.5184C17.1719 18.6537 17.8728 17.9527 18.7375 17.9527C19.6021 17.9527 20.3031 18.6537 20.3031 19.5184Z" stroke="black" stroke-width="1.5" stroke-miterlimit="10" stroke-linecap="round" stroke-linejoin="round"/>
<path d="M19.9604 18.2949L24.2171 14.0384" stroke="black" stroke-width="1.5" stroke-miterlimit="10" stroke-linecap="round" stroke-linejoin="round"/>
<path d="M15.606 22.6504L17.563 20.6933" stroke="black" stroke-width="1.5" stroke-miterlimit="10" stroke-linecap="round" stroke-linejoin="round"/>
<path d="M18.7375 11.6898V12.4727" stroke="black" stroke-width="1.5" stroke-miterlimit="10" stroke-linecap="round" stroke-linejoin="round"/>
<path d="M18.7373 26.5629V27.3457" stroke="black" stroke-width="1.5" stroke-miterlimit="10" stroke-linecap="round" stroke-linejoin="round"/>
<path d="M26.5658 19.5195H25.783" stroke="black" stroke-width="1.5" stroke-miterlimit="10" stroke-linecap="round" stroke-linejoin="round"/>
<path d="M11.6917 19.5195H10.9089" stroke="black" stroke-width="1.5" stroke-miterlimit="10" stroke-linecap="round" stroke-linejoin="round"/>
<path d="M8.56064 29.6953H0.732422" stroke="black" stroke-width="1.5" stroke-miterlimit="10" stroke-linecap="round" stroke-linejoin="round"/>
<path d="M7.77778 32.8262H3.08081" stroke="black" stroke-width="1.5" stroke-miterlimit="10" stroke-linecap="round" stroke-linejoin="round"/>
<path d="M6.99507 35.957H5.42944" stroke="black" stroke-width="1.5" stroke-miterlimit="10" stroke-linecap="round" stroke-linejoin="round"/>
</g>
<defs>
<clipPath id="clip0_117_1513">
<rect width="50" height="50" fill="white"/>
</clipPath>
</defs>
</svg>
