<svg width="50" height="50" viewBox="0 0 50 50" fill="none" xmlns="http://www.w3.org/2000/svg">
<path d="M37.1777 21.3574C37.1777 14.6387 31.709 9.17969 25 9.17969C18.291 9.17969 12.8223 14.6387 12.8223 21.3574C12.8223 28.0664 18.2812 33.5352 25 33.5352C31.7188 33.5352 37.1777 28.0664 37.1777 21.3574ZM25 31.9629C19.1504 31.9629 14.3848 27.207 14.3848 21.3477C14.3848 15.4883 19.1504 10.7422 25 10.7422C30.8496 10.7422 35.6152 15.498 35.6152 21.3574C35.6152 27.2168 30.8496 31.9629 25 31.9629Z" fill="black"/>
<path d="M39.9219 33.9547C40.3613 33.7301 40.752 33.4372 41.0547 33.027C41.8457 31.943 41.6602 30.527 41.4844 29.1501C41.3672 28.2614 41.25 27.3336 41.4551 26.7086C41.6406 26.1227 42.2656 25.4684 42.8613 24.8434C43.7891 23.8668 44.834 22.7633 44.834 21.3668C44.834 19.9704 43.7988 18.8473 42.8711 17.8708C42.2754 17.236 41.6504 16.5915 41.4648 16.0055C41.2598 15.3805 41.377 14.4528 41.4941 13.5641C41.6699 12.1872 41.8457 10.7711 41.0645 9.68716C40.2734 8.59341 38.8574 8.32974 37.4902 8.06607C36.6113 7.90005 35.7031 7.73404 35.1855 7.35318C34.668 6.98208 34.2383 6.1813 33.8184 5.40005C33.1836 4.22818 32.4512 2.90005 31.1523 2.47037C29.9023 2.06021 28.623 2.66568 27.3828 3.25162C26.5527 3.64224 25.7031 4.04263 25.0195 4.04263C24.3359 4.04263 23.4863 3.64224 22.6563 3.25162C21.416 2.66568 20.1367 2.06021 18.8867 2.47037C17.5781 2.89029 16.8945 4.16958 16.2207 5.40005C15.8008 6.17154 15.3613 6.98208 14.8535 7.35318C14.3262 7.73404 13.4277 7.90982 12.5488 8.06607C11.1816 8.31997 9.76563 8.59341 8.97461 9.68716C8.18359 10.7711 8.36914 12.1872 8.54492 13.5641C8.66211 14.4528 8.7793 15.3805 8.57422 16.0055C8.38867 16.5915 7.76367 17.2458 7.16797 17.8708C6.24023 18.8473 5.19531 19.9508 5.19531 21.3473C5.19531 22.7438 6.25 23.8473 7.16797 24.8239C7.76367 25.4586 8.38867 26.1032 8.57422 26.6891C8.7793 27.3141 8.66211 28.2418 8.54492 29.1305C8.36914 30.5075 8.19336 31.9235 8.97461 33.0075C9.27734 33.4176 9.66797 33.7204 10.1074 33.9352L5.84961 41.3083C5.69336 41.5817 5.71289 41.9235 5.9082 42.1774C6.10352 42.4313 6.42578 42.5387 6.72852 42.4606L13.0176 40.7711L14.707 47.0602C14.7852 47.3629 15.0488 47.5876 15.3613 47.6364C15.4004 47.6364 15.4297 47.6461 15.459 47.6461C15.7324 47.6461 15.9961 47.4997 16.1328 47.2555L20.127 40.3317C20.9766 40.234 21.8359 39.8336 22.666 39.443C23.4961 39.0524 24.3457 38.652 25.0293 38.652C25.7129 38.652 26.5625 39.0524 27.3926 39.443C28.2227 39.8336 29.082 40.2438 29.9316 40.3317L33.9258 47.2555C34.0625 47.4997 34.3262 47.6461 34.5996 47.6461C34.6289 47.6461 34.668 47.6461 34.6973 47.6364C35.0098 47.5973 35.2637 47.3727 35.3516 47.0602L37.041 40.7711L43.3301 42.4606C43.6328 42.5387 43.9551 42.4313 44.1504 42.1774C44.3457 41.9235 44.3652 41.5817 44.209 41.3083L39.9219 33.9547ZM15.6934 44.8532L14.2969 39.6286C14.1895 39.2086 13.7598 38.9645 13.3398 39.0719L8.11523 40.4684L11.5918 34.443C11.8945 34.5114 12.207 34.57 12.5195 34.6286C13.3984 34.7946 14.3066 34.9606 14.8242 35.3415C15.3418 35.7126 15.7715 36.5133 16.1914 37.2946C16.7578 38.3395 17.3926 39.5016 18.4473 40.0485L15.6934 44.8532ZM25 37.0993C23.9648 37.0993 22.9492 37.5778 21.9727 38.0368C21.0059 38.4958 20.0098 38.9645 19.3555 38.7497C18.6426 38.5153 18.1055 37.5192 17.5781 36.5622C17.0703 35.6344 16.5527 34.6774 15.752 34.0915C14.9414 33.5055 13.8574 33.3004 12.8125 33.1051C11.748 32.9001 10.6445 32.695 10.2051 32.109C9.78516 31.5329 9.92187 30.4196 10.0586 29.3551C10.1953 28.2907 10.332 27.1969 10.0195 26.2301C9.7168 25.3122 8.97461 24.5211 8.26172 23.7692C7.5 22.9684 6.70898 22.1383 6.70898 21.3668C6.70898 20.5954 7.5 19.7653 8.26172 18.9645C8.98437 18.2028 9.72656 17.4215 10.0195 16.5036C10.332 15.5368 10.1953 14.443 10.0586 13.3786C9.92187 12.3043 9.78516 11.2008 10.2051 10.6247C10.6348 10.029 11.7383 9.82388 12.8125 9.62857C13.8574 9.43326 14.9414 9.22818 15.752 8.64224C16.5527 8.06607 17.0703 7.09927 17.5781 6.17154C18.1055 5.20474 18.6426 4.21841 19.3555 3.98404C20.0195 3.76919 21.0156 4.23794 21.9727 4.69693C22.9492 5.15591 23.9648 5.63443 25 5.63443C26.0352 5.63443 27.0508 5.15591 28.0273 4.69693C28.9941 4.23794 29.9902 3.76919 30.6445 3.98404C31.3574 4.21841 31.8945 5.21451 32.4219 6.17154C32.9297 7.09927 33.4473 8.0563 34.248 8.64224C35.0586 9.22818 36.1426 9.43326 37.1875 9.62857C38.252 9.83365 39.3555 10.0387 39.7949 10.6247C40.2148 11.2008 40.0781 12.3141 39.9414 13.3786C39.8047 14.443 39.668 15.5368 39.9805 16.5036C40.2832 17.4215 41.0254 18.2126 41.7383 18.9645C42.5 19.7653 43.291 20.5954 43.291 21.3668C43.291 22.1383 42.5 22.9684 41.7383 23.7692C41.0156 24.5309 40.2734 25.3122 39.9805 26.2301C39.668 27.1969 39.8047 28.2907 39.9414 29.3551C40.0781 30.4294 40.2148 31.5329 39.7949 32.109C39.3652 32.7047 38.2617 32.9098 37.1875 33.1051C36.1426 33.3004 35.0586 33.5055 34.248 34.0915C33.4473 34.6676 32.9297 35.6344 32.4219 36.5622C31.8945 37.529 31.3574 38.5153 30.6445 38.7497C29.9805 38.9645 28.9844 38.4958 28.0273 38.0368C27.0508 37.5778 26.0352 37.0993 25 37.0993ZM36.6602 39.0719C36.2402 38.9645 35.8105 39.2086 35.7031 39.6286L34.3066 44.8532L31.543 40.068C32.5879 39.5309 33.2031 38.4079 33.7988 37.3141C34.2187 36.5426 34.6582 35.7321 35.166 35.361C35.6934 34.9801 36.5918 34.8043 37.4707 34.6481C37.7832 34.5895 38.0957 34.5309 38.3984 34.4626L41.875 40.4879L36.6602 39.0719Z" fill="black"/>
<path d="M32.3242 16.5728C32.0215 16.27 31.5234 16.27 31.2207 16.5728L23.3105 24.4829L18.7891 19.9614C18.4863 19.6587 17.9883 19.6587 17.6855 19.9614C17.3828 20.2642 17.3828 20.7622 17.6855 21.0649L22.7637 26.1431C22.9102 26.2896 23.1055 26.3677 23.3203 26.3677C23.5352 26.3677 23.7305 26.2896 23.877 26.1431L32.3242 17.6763C32.627 17.3735 32.627 16.8755 32.3242 16.5728Z" fill="black"/>
</svg>
