<svg width="27" height="28" viewBox="0 0 27 28" fill="none" xmlns="http://www.w3.org/2000/svg">
<path d="M13.5 0.998047C9.83644 0.998047 9.37575 1.01492 7.93631 1.07905C6.49687 1.14655 5.51644 1.37267 4.6575 1.7068C3.75653 2.04568 2.94045 2.57725 2.26631 3.26436C1.57963 3.93885 1.04812 4.75483 0.70875 5.65555C0.374625 6.5128 0.146812 7.49492 0.081 8.9293C0.016875 10.3721 0 10.8311 0 14.4997C0 18.165 0.016875 18.624 0.081 20.0634C0.1485 21.5012 0.374625 22.4816 0.70875 23.3405C1.05469 24.2282 1.51537 24.9808 2.26631 25.7317C3.01556 26.4827 3.76819 26.945 4.65581 27.2893C5.51644 27.6234 6.49519 27.8512 7.93294 27.917C9.37406 27.9812 9.83306 27.998 13.5 27.998C17.1669 27.998 17.6242 27.9812 19.0654 27.917C20.5014 27.8495 21.4852 27.6234 22.3442 27.2893C23.2446 26.9502 24.0601 26.4187 24.7337 25.7317C25.4846 24.9808 25.9453 24.2282 26.2912 23.3405C26.6237 22.4816 26.8515 21.5012 26.919 20.0634C26.9831 18.624 27 18.165 27 14.498C27 10.8311 26.9831 10.3721 26.919 8.93098C26.8515 7.49492 26.6237 6.5128 26.2912 5.65555C25.9519 4.7548 25.4204 3.93881 24.7337 3.26436C24.0598 2.577 23.2436 2.04539 22.3425 1.7068C21.4819 1.37267 20.4997 1.14486 19.0637 1.07905C17.6226 1.01492 17.1652 0.998047 13.4966 0.998047H13.5017H13.5ZM12.2901 3.43142H13.5017C17.1062 3.43142 17.5331 3.44323 18.9557 3.50905C20.2719 3.56811 20.9874 3.78917 21.4633 3.97311C22.0927 4.2178 22.5433 4.51142 23.0158 4.98392C23.4883 5.45642 23.7802 5.9053 24.0249 6.53642C24.2106 7.01061 24.4299 7.72611 24.489 9.04236C24.5548 10.4649 24.5683 10.8919 24.5683 14.4947C24.5683 18.0975 24.5548 18.5261 24.489 19.9487C24.4299 21.2649 24.2089 21.9787 24.0249 22.4546C23.8085 23.0408 23.463 23.5708 23.0141 24.0054C22.5416 24.4779 22.0927 24.7699 21.4616 25.0145C20.9891 25.2002 20.2736 25.4195 18.9557 25.4803C17.5331 25.5444 17.1062 25.5596 13.5017 25.5596C9.89719 25.5596 9.46856 25.5444 8.046 25.4803C6.72975 25.4195 6.01594 25.2002 5.54006 25.0145C4.95365 24.7984 4.42315 24.4536 3.98756 24.0054C3.53827 23.5701 3.19228 23.0396 2.97506 22.4529C2.79112 21.9787 2.57006 21.2632 2.511 19.947C2.44687 18.5244 2.43337 18.0975 2.43337 14.4913C2.43337 10.8868 2.44687 10.4615 2.511 9.03898C2.57175 7.72273 2.79112 7.00723 2.97675 6.53136C3.22144 5.90192 3.51506 5.45136 3.98756 4.97886C4.46006 4.50636 4.90894 4.21442 5.54006 3.96973C6.01594 3.78411 6.72975 3.56473 8.046 3.50398C9.29137 3.44661 9.774 3.42973 12.2901 3.42805V3.43142V3.43142ZM20.7073 5.67242C20.4946 5.67242 20.2839 5.71432 20.0874 5.79574C19.8908 5.87715 19.7122 5.99648 19.5618 6.14691C19.4114 6.29734 19.292 6.47593 19.2106 6.67247C19.1292 6.86902 19.0873 7.07968 19.0873 7.29242C19.0873 7.50516 19.1292 7.71582 19.2106 7.91237C19.292 8.10892 19.4114 8.2875 19.5618 8.43793C19.7122 8.58837 19.8908 8.70769 20.0874 8.78911C20.2839 8.87052 20.4946 8.91242 20.7073 8.91242C21.137 8.91242 21.549 8.74174 21.8528 8.43793C22.1566 8.13413 22.3273 7.72207 22.3273 7.29242C22.3273 6.86277 22.1566 6.45072 21.8528 6.14691C21.549 5.8431 21.137 5.67242 20.7073 5.67242V5.67242ZM13.5017 7.5658C12.5821 7.55145 11.6689 7.72018 10.8151 8.06216C9.96142 8.40414 9.18424 8.91254 8.52888 9.55776C7.87351 10.203 7.35305 10.9721 6.99779 11.8204C6.64254 12.6687 6.45958 13.5792 6.45958 14.4989C6.45958 15.4186 6.64254 16.3291 6.99779 17.1774C7.35305 18.0257 7.87351 18.7948 8.52888 19.44C9.18424 20.0852 9.96142 20.5936 10.8151 20.9356C11.6689 21.2776 12.5821 21.4463 13.5017 21.432C15.3217 21.4036 17.0576 20.6606 18.3346 19.3635C19.6117 18.0664 20.3275 16.3191 20.3275 14.4989C20.3275 12.6786 19.6117 10.9314 18.3346 9.63425C17.0576 8.33713 15.3217 7.59419 13.5017 7.5658V7.5658ZM13.5017 9.99748C14.6953 9.99748 15.84 10.4716 16.6841 11.3157C17.5281 12.1597 18.0022 13.3044 18.0022 14.498C18.0022 15.6917 17.5281 16.8364 16.6841 17.6804C15.84 18.5244 14.6953 18.9986 13.5017 18.9986C12.3081 18.9986 11.1633 18.5244 10.3193 17.6804C9.47529 16.8364 9.00112 15.6917 9.00112 14.498C9.00112 13.3044 9.47529 12.1597 10.3193 11.3157C11.1633 10.4716 12.3081 9.99748 13.5017 9.99748V9.99748Z" fill="black"/>
</svg>
