<svg width="20" height="20" viewBox="0 0 20 20" fill="none" xmlns="http://www.w3.org/2000/svg">
<path fill-rule="evenodd" clip-rule="evenodd" d="M5.93248 2.43659C5.98925 2.38116 6.0567 2.33718 6.13095 2.30717C6.2052 2.27717 6.2848 2.26172 6.36519 2.26172C6.44558 2.26172 6.52518 2.27717 6.59943 2.30717C6.67368 2.33718 6.74112 2.38116 6.79789 2.43659L14.1319 9.57945C14.1888 9.63474 14.234 9.70043 14.2648 9.77274C14.2956 9.84506 14.3114 9.92258 14.3114 10.0009C14.3114 10.0792 14.2956 10.1567 14.2648 10.229C14.234 10.3013 14.1888 10.367 14.1319 10.4223L6.79789 17.5652C6.68313 17.6769 6.52748 17.7397 6.36519 17.7397C6.20289 17.7397 6.04724 17.6769 5.93248 17.5652C5.81772 17.4534 5.75325 17.3018 5.75325 17.1437C5.75325 16.9857 5.81772 16.8341 5.93248 16.7223L12.835 10.0009L5.93248 3.27945C5.87557 3.22416 5.83041 3.15847 5.7996 3.08616C5.76879 3.01384 5.75293 2.93632 5.75293 2.85802C5.75293 2.77973 5.76879 2.7022 5.7996 2.62989C5.83041 2.55757 5.87557 2.49188 5.93248 2.43659V2.43659Z" fill="white"/>
</svg>
