<svg width="21" height="20" viewBox="0 0 21 20" fill="none" xmlns="http://www.w3.org/2000/svg">
<path fill-rule="evenodd" clip-rule="evenodd" d="M6.5692 2.43659C6.62597 2.38116 6.69342 2.33718 6.76767 2.30717C6.84192 2.27717 6.92152 2.26172 7.00191 2.26172C7.0823 2.26172 7.1619 2.27717 7.23615 2.30717C7.3104 2.33718 7.37784 2.38116 7.43461 2.43659L14.7686 9.57945C14.8255 9.63474 14.8707 9.70043 14.9015 9.77274C14.9323 9.84506 14.9482 9.92258 14.9482 10.0009C14.9482 10.0792 14.9323 10.1567 14.9015 10.229C14.8707 10.3013 14.8255 10.367 14.7686 10.4223L7.43461 17.5652C7.31985 17.6769 7.1642 17.7397 7.00191 17.7397C6.83961 17.7397 6.68396 17.6769 6.5692 17.5652C6.45444 17.4534 6.38997 17.3018 6.38997 17.1437C6.38997 16.9857 6.45444 16.8341 6.5692 16.7223L13.4717 10.0009L6.5692 3.27945C6.51229 3.22416 6.46713 3.15847 6.43632 3.08616C6.40551 3.01384 6.38965 2.93632 6.38965 2.85802C6.38965 2.77973 6.40551 2.7022 6.43632 2.62989C6.46713 2.55757 6.51229 2.49188 6.5692 2.43659Z" fill="black"/>
</svg>
