<svg width="278" height="50" viewBox="0 0 278 50" fill="none" xmlns="http://www.w3.org/2000/svg">
<g clip-path="url(#clip0_73_1314)">
<path fill-rule="evenodd" clip-rule="evenodd" d="M34.9984 14.4998L48.9984 16.5998C50.6984 16.8998 51.8984 18.3998 51.5984 20.1998C51.4984 20.8998 51.1984 21.4998 50.6984 21.9998L40.5984 31.9998L42.9984 46.2998C43.2984 47.9998 42.0984 49.5998 40.3984 49.8998C39.6984 49.9998 38.9984 49.8998 38.3984 49.5998L25.7984 42.8998L13.1984 49.5998C12.0984 50.1998 10.8984 50.0998 9.89849 49.3998C8.89849 48.6998 8.39849 47.4998 8.59849 46.2998L11.0984 31.9998L0.898488 21.9998C0.0984887 21.1998 -0.201512 19.8998 0.0984887 18.7998C0.498488 17.6998 1.39849 16.8998 2.59849 16.6998L16.6984 14.5998L22.9984 1.59978C23.7984 -0.00022471 25.5984 -0.600224 27.1984 0.0997758C27.7984 0.399776 28.2984 0.899776 28.6984 1.59978L34.9984 14.4998ZM91.3984 14.4998L105.498 16.5998C107.198 16.8998 108.398 18.3998 108.098 20.1998C107.998 20.8998 107.698 21.4998 107.198 21.9998L96.9984 31.9998L99.3984 46.3998C99.6984 48.0998 98.4984 49.6998 96.7984 49.9998C96.0984 50.0998 95.3984 49.9998 94.7984 49.6998L82.1984 42.9998L69.5984 49.6998C68.4984 50.2998 67.2984 50.1998 66.2984 49.4998C65.2984 48.7998 64.7984 47.5998 64.9984 46.3998L67.5984 31.9998L57.3984 21.9998C56.5984 21.1998 56.2984 19.8998 56.5984 18.7998C56.9984 17.6998 57.8984 16.8998 59.0984 16.6998L73.1984 14.5998L79.4984 1.59978C80.2984 -0.00022471 82.0984 -0.600224 83.6984 0.0997758C84.2984 0.399776 84.7984 0.899776 85.1984 1.59978L91.3984 14.4998ZM147.798 14.4998L161.898 16.5998C163.598 16.8998 164.798 18.3998 164.498 20.1998C164.398 20.8998 164.098 21.4998 163.598 21.9998L153.398 31.9998L155.798 46.3998C156.098 48.0998 154.898 49.6998 153.198 49.9998C152.498 50.0998 151.798 49.9998 151.198 49.6998L138.598 42.9998L125.998 49.6998C124.898 50.2998 123.698 50.1998 122.698 49.4998C121.698 48.7998 121.198 47.5998 121.398 46.3998L123.998 31.9998L113.798 21.9998C112.998 21.1998 112.698 19.8998 112.998 18.7998C113.398 17.6998 114.298 16.8998 115.498 16.6998L129.598 14.5998L135.898 1.59978C136.698 -0.00022471 138.498 -0.600224 140.098 0.0997758C140.698 0.399776 141.198 0.899776 141.598 1.59978L147.798 14.4998ZM204.298 14.4998L218.398 16.5998C220.098 16.8998 221.298 18.3998 220.998 20.1998C220.898 20.8998 220.598 21.4998 220.098 21.9998L209.898 31.9998L212.298 46.3998C212.598 48.0998 211.398 49.6998 209.698 49.9998C208.998 50.0998 208.298 49.9998 207.698 49.6998L195.098 42.9998L182.498 49.6998C181.398 50.2998 180.198 50.1998 179.198 49.4998C178.198 48.7998 177.698 47.5998 177.898 46.3998L180.298 31.9998L170.098 21.9998C169.298 21.1998 168.998 19.8998 169.298 18.7998C169.698 17.6998 170.598 16.8998 171.798 16.6998L185.898 14.5998L192.198 1.59978C192.998 -0.00022471 194.798 -0.600224 196.398 0.0997758C196.998 0.399776 197.498 0.899776 197.898 1.59978L204.298 14.4998ZM260.698 14.4998L274.798 16.5998C276.498 16.8998 277.698 18.3998 277.398 20.1998C277.298 20.8998 276.998 21.4998 276.498 21.9998L266.298 31.9998L268.698 46.3998C268.998 48.0998 267.798 49.6998 266.098 49.9998C265.398 50.0998 264.698 49.9998 264.098 49.6998L251.498 42.9998L238.998 49.5998C237.898 50.1998 236.698 50.0998 235.698 49.3998C234.698 48.6998 234.198 47.4998 234.398 46.2998L236.798 31.8998L226.598 21.8998C225.798 21.0998 225.498 19.7998 225.798 18.6998C226.198 17.5998 227.098 16.7998 228.298 16.5998L242.398 14.4998L248.698 1.49978C249.498 -0.100225 251.298 -0.700224 252.898 -0.000224799C253.498 0.299776 253.998 0.799776 254.398 1.49978L260.698 14.4998Z" fill="black"/>
</g>
<defs>
<clipPath id="clip0_73_1314">
<rect width="278" height="50" fill="white"/>
</clipPath>
</defs>
</svg>
