<svg width="50" height="50" viewBox="0 0 50 50" fill="none" xmlns="http://www.w3.org/2000/svg">
<path d="M5.55753 35.0209C5.27003 34.4576 5.00402 33.876 4.76613 33.292C4.73743 33.2203 4.69484 33.155 4.64082 33.0998C4.58681 33.0447 4.52242 33.0007 4.45136 32.9705C4.3803 32.9403 4.30397 32.9245 4.22676 32.9238C4.14955 32.9232 4.07299 32.9379 4.00146 32.967C3.92994 32.9961 3.86487 33.039 3.80999 33.0933C3.75511 33.1476 3.71151 33.2123 3.68169 33.2835C3.65187 33.3547 3.63642 33.4311 3.63623 33.5083C3.63604 33.5855 3.65111 33.662 3.68058 33.7334C3.93058 34.3486 4.21105 34.9607 4.51378 35.5537C4.54877 35.6222 4.59691 35.6832 4.65546 35.7331C4.714 35.7831 4.78181 35.821 4.85501 35.8447C4.92821 35.8684 5.00537 35.8775 5.08207 35.8714C5.15878 35.8653 5.23353 35.8441 5.30206 35.8092C5.3706 35.7742 5.43157 35.726 5.4815 35.6675C5.53143 35.6089 5.56933 35.5411 5.59306 35.4679C5.61678 35.3947 5.62585 35.3176 5.61976 35.2409C5.61366 35.1642 5.59252 35.0894 5.55753 35.0209Z" fill="black"/>
<path d="M4.12457 31.5026C3.93629 30.8983 3.77301 30.2796 3.63746 29.6635C3.60241 29.5136 3.50971 29.3834 3.37943 29.3012C3.24914 29.2191 3.09174 29.1915 2.9413 29.2246C2.79085 29.2576 2.65946 29.3485 2.57555 29.4777C2.49163 29.6068 2.46195 29.7638 2.49293 29.9147C2.63512 30.5631 2.80738 31.2143 3.00504 31.8507C3.05119 31.9991 3.15443 32.1232 3.29204 32.1955C3.42966 32.2678 3.59037 32.2825 3.73883 32.2364C3.88729 32.1902 4.01133 32.087 4.08367 31.9494C4.15601 31.8118 4.17072 31.6511 4.12457 31.5026Z" fill="black"/>
<path d="M2.80379 28.4475C2.95784 28.4272 3.09751 28.3465 3.19208 28.2232C3.28665 28.1 3.32838 27.9442 3.30809 27.7901C3.22528 27.1651 3.16825 26.5284 3.13778 25.8944C3.1351 25.8172 3.11701 25.7414 3.08456 25.6713C3.05212 25.6013 3.00598 25.5384 2.94886 25.4865C2.89174 25.4345 2.8248 25.3945 2.75199 25.3689C2.67917 25.3432 2.60196 25.3323 2.52489 25.337C2.44802 25.3406 2.37262 25.3594 2.303 25.3922C2.23338 25.425 2.1709 25.4712 2.11914 25.5282C2.06737 25.5851 2.02734 25.6517 2.00131 25.7241C1.97529 25.7965 1.96379 25.8734 1.96747 25.9503C1.99911 26.6171 2.05926 27.2874 2.14598 27.9424C2.15604 28.0188 2.18104 28.0923 2.21955 28.159C2.25805 28.2256 2.30932 28.2841 2.3704 28.3309C2.43149 28.3777 2.50121 28.4121 2.57557 28.4319C2.64994 28.4518 2.72749 28.4568 2.80379 28.4467V28.4475Z" fill="black"/>
<path d="M13.0468 43.4805C12.523 43.1266 12.0077 42.7469 11.5152 42.35C11.4552 42.3018 11.3863 42.2659 11.3125 42.2443C11.2386 42.2227 11.1612 42.2158 11.0847 42.2241C11.0082 42.2324 10.9341 42.2557 10.8666 42.2927C10.7991 42.3296 10.7395 42.3795 10.6913 42.4395C10.6431 42.4994 10.6072 42.5683 10.5856 42.6422C10.564 42.716 10.5571 42.7934 10.5654 42.8699C10.5737 42.9464 10.597 43.0205 10.634 43.088C10.6709 43.1555 10.7208 43.2151 10.7808 43.2633C11.2988 43.6797 11.8402 44.0801 12.3917 44.4516C12.5203 44.5386 12.6782 44.5711 12.8307 44.5418C12.9832 44.5125 13.1178 44.4238 13.205 44.2953C13.2482 44.2315 13.2785 44.1597 13.2939 44.0842C13.3094 44.0086 13.3098 43.9308 13.2951 43.8551C13.2804 43.7794 13.2509 43.7073 13.2083 43.643C13.1657 43.5788 13.1108 43.5235 13.0468 43.4805Z" fill="black"/>
<path d="M6.49253 36.6793C6.45272 36.6123 6.39994 36.5539 6.33728 36.5075C6.27462 36.4611 6.20333 36.4277 6.1276 36.4093C6.05187 36.3908 5.97321 36.3876 5.89624 36.3999C5.81927 36.4122 5.74552 36.4398 5.67933 36.481C5.61314 36.5221 5.55582 36.5761 5.51074 36.6397C5.46567 36.7033 5.43373 36.7752 5.41681 36.8513C5.39988 36.9274 5.39831 37.0061 5.41219 37.0828C5.42606 37.1595 5.45511 37.2327 5.49761 37.298C5.84918 37.8617 6.2273 38.4179 6.62496 38.9515C6.67094 39.0133 6.72864 39.0653 6.79474 39.1047C6.86084 39.1441 6.93406 39.1701 7.01022 39.1813C7.08637 39.1924 7.16397 39.1884 7.23858 39.1695C7.3132 39.1506 7.38336 39.1173 7.44507 39.0713C7.50678 39.0253 7.55883 38.9676 7.59825 38.9015C7.63766 38.8354 7.66367 38.7622 7.67479 38.686C7.68591 38.6099 7.68191 38.5323 7.66304 38.4576C7.64417 38.383 7.61079 38.3129 7.5648 38.2512C7.18746 37.7418 6.82613 37.2133 6.49253 36.6793Z" fill="black"/>
<path d="M8.76438 39.7268C8.66135 39.6104 8.51632 39.5398 8.3612 39.5304C8.20608 39.521 8.05357 39.5736 7.93723 39.6766C7.82089 39.7796 7.75024 39.9246 7.74082 40.0798C7.73141 40.2349 7.784 40.3874 7.88703 40.5037C8.32883 41.0022 8.79641 41.4869 9.27649 41.9451C9.33166 42.0006 9.39739 42.0445 9.46979 42.0741C9.54219 42.1038 9.6198 42.1186 9.69804 42.1178C9.77627 42.117 9.85355 42.1005 9.92532 42.0694C9.99708 42.0382 10.0619 41.993 10.1159 41.9364C10.1699 41.8797 10.212 41.8129 10.2398 41.7397C10.2675 41.6666 10.2803 41.5886 10.2775 41.5104C10.2746 41.4322 10.2561 41.3554 10.223 41.2845C10.19 41.2136 10.1431 41.15 10.0851 41.0975C9.62844 40.6608 9.1843 40.1994 8.76438 39.7268Z" fill="black"/>
<path d="M25.6188 1.13281C21.8211 1.13653 18.0799 2.05181 14.7095 3.80173C11.3391 5.55165 8.43797 8.08507 6.25001 11.1891C6.1605 11.3161 6.12513 11.4735 6.15169 11.6267C6.17824 11.7798 6.26454 11.9162 6.39161 12.0057C6.51868 12.0952 6.6761 12.1305 6.82924 12.104C6.98238 12.0774 7.1187 11.9911 7.20821 11.8641C9.66526 8.37446 13.0641 5.65564 17.0081 4.02489C20.9521 2.39415 25.2785 1.91875 29.4825 2.65417C33.6865 3.38959 37.5946 5.3055 40.7508 8.17831C43.907 11.0511 46.181 14.7623 47.3075 18.8788C48.4339 22.9953 48.3664 27.3472 47.1128 31.4268C45.8591 35.5063 43.4711 39.1452 40.2273 41.9187C36.9836 44.6922 33.0179 46.486 28.7931 47.0906C24.5683 47.6953 20.2587 47.0859 16.3672 45.3336C15.793 45.0742 15.2211 44.7867 14.668 44.4773C14.6008 44.4392 14.5267 44.4146 14.4499 44.4052C14.3732 44.3958 14.2954 44.4017 14.2209 44.4225C14.1465 44.4433 14.0769 44.4786 14.0161 44.5264C13.9554 44.5742 13.9047 44.6336 13.867 44.7011C13.8293 44.7685 13.8053 44.8428 13.7965 44.9196C13.7876 44.9964 13.794 45.0742 13.8154 45.1485C13.8367 45.2228 13.8725 45.2921 13.9208 45.3525C13.969 45.4129 14.0287 45.4632 14.0965 45.5004C14.6789 45.8254 15.2805 46.1289 15.8852 46.4016C19.1052 47.8529 22.6091 48.5654 26.1402 48.4871C29.6714 48.4088 33.1403 47.5416 36.2928 45.949C39.4454 44.3564 42.2017 42.0788 44.36 39.2829C46.5183 36.4871 48.0238 33.2438 48.7662 29.7908C49.5087 26.3377 49.4693 22.7623 48.651 19.3264C47.8327 15.8905 46.2561 12.6812 44.0368 9.93355C41.8175 7.1859 39.0116 4.96951 35.8247 3.44672C32.6379 1.92394 29.1507 1.13333 25.6188 1.13281Z" fill="black"/>
<path d="M6.42633 13.5196C6.03955 13.5188 5.6656 13.3807 5.37119 13.1299C5.07677 12.8791 4.88104 12.5318 4.81891 12.15L4.33141 9.12308C4.31103 8.97164 4.35061 8.81823 4.44172 8.69556C4.53282 8.57289 4.66825 8.49067 4.81911 8.46641C4.96998 8.44216 5.12435 8.4778 5.24931 8.56574C5.37427 8.65367 5.45994 8.78695 5.48805 8.93714L5.97672 11.9637C5.99667 12.0831 6.06291 12.1898 6.16105 12.2607C6.2592 12.3315 6.38133 12.3608 6.50094 12.3422L9.5275 11.8547C9.67894 11.8343 9.83235 11.8739 9.95502 11.965C10.0777 12.0561 10.1599 12.1916 10.1842 12.3424C10.2084 12.4933 10.1728 12.6477 10.0848 12.7726C9.99691 12.8976 9.86363 12.9833 9.71344 13.0114L6.68688 13.4989C6.60073 13.5128 6.5136 13.5197 6.42633 13.5196Z" fill="black"/>
<path d="M40.7518 14.8022L26.5147 7.29944C26.2446 7.15667 25.9438 7.08203 25.6383 7.08203C25.3328 7.08203 25.032 7.15667 24.7619 7.29944L10.524 14.8022C10.2209 14.9613 9.96708 15.2004 9.79018 15.4936C9.61327 15.7867 9.52001 16.1227 9.52051 16.4651V33.1545C9.51994 33.497 9.61317 33.833 9.79008 34.1263C9.96698 34.4195 10.2208 34.6586 10.524 34.8178L24.7619 42.3205C25.0321 42.4629 25.3329 42.5373 25.6383 42.5373C25.9437 42.5373 26.2445 42.4629 26.5147 42.3205L40.7518 34.8178C41.055 34.6587 41.309 34.4195 41.4859 34.1263C41.6629 33.8331 41.7562 33.497 41.7557 33.1545V16.4651C41.7561 16.1226 41.6628 15.7866 41.4858 15.4935C41.3089 15.2003 41.055 14.9613 40.7518 14.8022ZM20.0838 19.6092C19.773 19.7653 19.5118 20.0049 19.3296 20.3012C19.1475 20.5975 19.0515 20.9387 19.0525 21.2866V27.9819C19.0539 27.9944 19.0507 28.007 19.0435 28.0174C19.0364 28.0278 19.0257 28.0353 19.0135 28.0385C19.0025 28.0447 18.9896 28.0466 18.9773 28.0439C18.965 28.0413 18.9541 28.0342 18.9467 28.024L17.6662 26.6873C17.5199 26.536 17.3375 26.4244 17.1362 26.3629C16.9349 26.3014 16.7213 26.292 16.5154 26.3358L15.6799 26.5158C15.671 26.5177 15.6618 26.5176 15.6529 26.5154C15.6441 26.5133 15.6359 26.5092 15.6288 26.5035C15.6217 26.4978 15.616 26.4905 15.6121 26.4823C15.6082 26.4741 15.6061 26.4652 15.6061 26.4561V18.9498C15.6055 18.8188 15.6416 18.6903 15.7102 18.5787C15.7788 18.4671 15.8772 18.3769 15.9943 18.3182L30.7443 10.853L33.9975 12.5674L20.0838 19.6092ZM25.308 8.33577C25.4098 8.28216 25.5232 8.25414 25.6383 8.25414C25.7534 8.25414 25.8667 8.28216 25.9686 8.33577L29.4732 10.1826L15.4662 17.2725C15.3242 17.3449 15.192 17.4352 15.0729 17.5412L11.3834 15.6737L25.308 8.33577ZM25.0522 41.1483L11.0705 33.7807C10.9564 33.7209 10.8609 33.6311 10.7943 33.5209C10.7276 33.4108 10.6924 33.2845 10.6924 33.1557V16.6373L14.4814 18.5545C14.4521 18.6843 14.4366 18.8168 14.4354 18.9498V26.4549C14.4354 26.6388 14.4766 26.8204 14.5558 26.9863C14.6351 27.1523 14.7505 27.2984 14.8936 27.414C15.0367 27.5295 15.2038 27.6116 15.3827 27.6543C15.5616 27.6969 15.7477 27.699 15.9275 27.6604L16.7631 27.4807C16.7733 27.4779 16.7842 27.4781 16.7943 27.4812C16.8045 27.4843 16.8136 27.4902 16.8205 27.4983L18.1018 28.835C18.272 29.0127 18.4915 29.1354 18.732 29.1873C18.9726 29.2391 19.2231 29.2179 19.4515 29.1261C19.6798 29.0344 19.8755 28.8765 20.0133 28.6726C20.1511 28.4688 20.2248 28.2283 20.2248 27.9823V21.4619L24.79 23.7721C24.8746 23.8143 24.9624 23.8498 25.0525 23.8783L25.0522 41.1483ZM25.3189 22.7268L20.9193 20.5002L35.2686 13.2373L39.8932 15.6741L25.9584 22.7272C25.8592 22.7771 25.7497 22.803 25.6387 22.803C25.5276 22.803 25.4181 22.7767 25.3189 22.7268ZM40.5838 33.1541C40.5837 33.2829 40.5485 33.4092 40.4818 33.5193C40.4152 33.6295 40.3197 33.7193 40.2057 33.7791L26.224 41.1491V23.8787C26.3147 23.85 26.4029 23.8144 26.4881 23.7721L40.5838 16.6377V33.1541Z" fill="black"/>
</svg>
