<svg width="20" height="21" viewBox="0 0 20 21" fill="none" xmlns="http://www.w3.org/2000/svg">
<g clip-path="url(#clip0_156_1438)">
<path d="M8.80758 0.5C3.95121 0.5 0 4.45121 0 9.30758C0 14.1642 3.95121 18.1152 8.80758 18.1152C13.6642 18.1152 17.6152 14.1642 17.6152 9.30758C17.6152 4.45121 13.6642 0.5 8.80758 0.5ZM8.80758 16.4892C4.84769 16.4892 1.62602 13.2675 1.62602 9.30762C1.62602 5.34773 4.84769 2.12602 8.80758 2.12602C12.7675 2.12602 15.9891 5.34769 15.9891 9.30758C15.9891 13.2675 12.7675 16.4892 8.80758 16.4892Z" fill="black"/>
<path d="M19.762 19.1124L15.1007 14.4511C14.7831 14.1335 14.2687 14.1335 13.9511 14.4511C13.6335 14.7684 13.6335 15.2834 13.9511 15.6007L18.6124 20.262C18.7711 20.4208 18.979 20.5002 19.1872 20.5002C19.395 20.5002 19.6031 20.4208 19.762 20.262C20.0796 19.9446 20.0796 19.4297 19.762 19.1124Z" fill="black"/>
</g>
<defs>
<clipPath id="clip0_156_1438">
<rect width="20" height="20" fill="white" transform="translate(0 0.5)"/>
</clipPath>
</defs>
</svg>
