<svg width="37" height="45" viewBox="0 0 37 45" fill="none" xmlns="http://www.w3.org/2000/svg">
<path d="M36.0822 7.58704L18.6661 0.0745401C18.5535 0.0253764 18.4319 0 18.309 0C18.186 0 18.0645 0.0253764 17.9518 0.0745401L0.535742 7.58704C0.376309 7.65662 0.240675 7.77126 0.145504 7.91687C0.0503323 8.06249 -0.000230349 8.23273 2.78665e-05 8.40668V21.4513C-0.00464139 24.112 0.577522 26.741 1.70504 29.151C2.83257 31.561 4.4777 33.6927 6.52324 35.3942L17.7322 44.737C17.8926 44.8707 18.0948 44.9438 18.3036 44.9438C18.5124 44.9438 18.7146 44.8707 18.875 44.737L30.0947 35.3942C32.1415 33.6934 33.788 31.562 34.9168 29.152C36.0456 26.7419 36.6288 24.1126 36.625 21.4513V8.41561C36.6264 8.23934 36.5756 8.06659 36.479 7.91914C36.3824 7.77169 36.2443 7.65614 36.0822 7.58704ZM34.8322 21.4513C34.8346 23.8514 34.3077 26.2225 33.2892 28.3957C32.2706 30.5689 30.7854 32.4908 28.9393 34.0245L18.309 42.8888L7.67146 34.0245C5.82536 32.4908 4.34015 30.5689 3.3216 28.3957C2.30304 26.2225 1.7762 23.8514 1.7786 21.4513V8.99418L18.309 1.8674L34.834 8.99418L34.8322 21.4513Z" fill="black"/>
<path d="M17.9517 3.96321L4.10702 9.93464C3.94758 10.0042 3.81195 10.1189 3.71678 10.2645C3.62161 10.4101 3.57104 10.5803 3.5713 10.7543V21.4507C3.56842 23.5883 4.03691 25.7003 4.94343 27.6361C5.84994 29.572 7.17217 31.2842 8.81595 32.6507L17.7445 40.0864C17.905 40.2201 18.1071 40.2932 18.3159 40.2932C18.5247 40.2932 18.7269 40.2201 18.8874 40.0864L27.8159 32.6507C29.4602 31.2845 30.7829 29.5725 31.6898 27.6365C32.5966 25.7006 33.0653 23.5885 33.0624 21.4507V10.7543C33.0626 10.5803 33.0121 10.4101 32.9169 10.2645C32.8217 10.1189 32.6861 10.0042 32.5267 9.93464L18.6659 3.96321C18.5533 3.91405 18.4317 3.88867 18.3088 3.88867C18.1859 3.88867 18.0643 3.91405 17.9517 3.96321ZM31.2624 11.3418V21.4507C31.2648 23.3269 30.8535 25.1806 30.0578 26.8797C29.2621 28.5788 28.1016 30.0816 26.6588 31.2811L18.3088 38.24L9.95702 31.2757C8.51488 30.0759 7.35487 28.5729 6.55951 26.8739C5.76415 25.1748 5.35297 23.3214 5.35523 21.4454V11.3418L18.3088 5.75607L31.2624 11.3418Z" fill="black"/>
<path d="M12.5766 19.0043C12.4082 18.8416 12.1827 18.7516 11.9486 18.7537C11.7145 18.7557 11.4905 18.8496 11.325 19.0151C11.1594 19.1807 11.0655 19.4046 11.0635 19.6387C11.0615 19.8728 11.1515 20.0984 11.3141 20.2668L15.5552 24.5096C15.6381 24.5928 15.7366 24.6587 15.8451 24.7038C15.9536 24.7488 16.0699 24.7719 16.1873 24.7719C16.3048 24.7719 16.4211 24.7488 16.5295 24.7038C16.638 24.6587 16.7365 24.5928 16.8195 24.5096L25.3034 16.0203C25.4424 15.8483 25.5126 15.6307 25.5003 15.4098C25.4881 15.1889 25.3943 14.9804 25.2371 14.8248C25.0798 14.6691 24.8705 14.5774 24.6495 14.5673C24.4285 14.5573 24.2116 14.6296 24.0409 14.7703L16.1838 22.6275L12.5766 19.0043Z" fill="black"/>
</svg>
