<svg width="50" height="50" viewBox="0 0 50 50" fill="none" xmlns="http://www.w3.org/2000/svg">
<g clip-path="url(#clip0_117_1569)">
<path d="M49.7711 28.3537L44.2282 22.8108L41.411 21.2006C41.0368 20.9858 40.5594 21.117 40.3453 21.4912C40.1313 21.8655 40.2618 22.3436 40.636 22.5569L42.1875 23.4444L25 33.4709L7.81253 23.4444L9.38285 22.5475C9.75707 22.3342 9.88753 21.8561 9.67347 21.4819C9.46019 21.1076 8.98285 20.9764 8.60785 21.1912L5.77191 22.8115L0.22894 28.3545C0.0570655 28.5264 -0.0249658 28.767 0.00628423 29.0076C0.0375342 29.2483 0.17894 29.46 0.388315 29.5819L5.46878 32.5311V38.2811C5.46878 38.5584 5.61644 38.8162 5.85628 38.9561L24.6063 49.8936C24.6258 49.9045 24.6469 49.9092 24.6672 49.9186C24.6883 49.9287 24.7086 49.9365 24.7305 49.9451C24.818 49.978 24.9078 49.9998 25 49.9998C25.0922 49.9998 25.1821 49.978 25.2696 49.9451C25.2914 49.9373 25.3118 49.9287 25.3328 49.9186C25.3532 49.9092 25.3743 49.9045 25.3938 49.8936L44.1438 38.9561C44.3836 38.8162 44.5313 38.5584 44.5313 38.2811V32.5311L49.611 29.5811C49.8211 29.4592 49.9618 29.2467 49.993 29.0069C50.0243 28.767 49.943 28.5256 49.7711 28.3537ZM6.37582 24.4162L23.7305 34.5397L19.4352 38.835L2.05082 28.7405L6.37582 24.4162ZM7.03128 33.4389L19.0086 40.3944C19.1555 40.5334 19.3469 40.6014 19.5391 40.6014C19.7485 40.6014 19.9586 40.5209 20.1149 40.3647L24.2188 36.2608V47.8584L7.03128 37.8326V33.4389ZM42.9688 37.8326L25.7813 47.8584V36.2608L29.9164 40.3959C30.0649 40.5444 30.2547 40.617 30.4461 40.617C30.6414 40.617 30.8375 40.5412 30.9922 40.3936L42.9688 33.4389V37.8326ZM30.5649 38.835L26.2696 34.5397L43.6243 24.4162L47.9493 28.7412L30.5649 38.835Z" fill="black"/>
<path d="M31.3321 20.0899C31.475 20.3469 31.7415 20.4923 32.0157 20.4923C32.1438 20.4923 32.2743 20.461 32.3938 20.3938L35.5344 18.6516C35.9118 18.4423 36.0477 17.9673 35.8383 17.5899C35.629 17.2134 35.154 17.0759 34.7758 17.286L31.6352 19.0282C31.2594 19.2368 31.1227 19.7118 31.3321 20.0899Z" fill="black"/>
<path d="M32.0163 17.3676C32.1445 17.3676 32.2749 17.3364 32.3945 17.2692L35.5351 15.527C35.9124 15.3176 36.0484 14.8426 35.839 14.4653C35.6296 14.0887 35.1546 13.9504 34.7765 14.1614L31.6359 15.9035C31.2585 16.1129 31.1226 16.5879 31.332 16.9653C31.4749 17.2231 31.7413 17.3676 32.0163 17.3676Z" fill="black"/>
<path d="M11.3391 20.9949L15.5578 23.3387C15.6781 23.4059 15.8086 23.4371 15.9367 23.4371C16.2117 23.4371 16.4773 23.2918 16.6203 23.0348C16.8305 22.6582 16.6937 22.1824 16.3172 21.973L12.5 19.852V9.10977L24.2188 15.3145V17.9684H21.875C21.4438 17.9684 21.0938 18.3176 21.0938 18.7496V23.4371H18.75C18.4344 23.4371 18.1492 23.627 18.0281 23.9191C17.907 24.2113 17.9742 24.5473 18.1977 24.7707L24.4477 31.0207C24.6 31.173 24.8 31.2496 25 31.2496C25.2 31.2496 25.4 31.173 25.5523 31.0207L31.8023 24.7707C32.0258 24.5473 32.093 24.2113 31.9719 23.9191C31.8508 23.627 31.5656 23.4371 31.25 23.4371H28.9062V18.7496C28.9062 18.3176 28.5562 17.9684 28.125 17.9684H25.7812V15.3137L37.5 9.10977V19.852L33.6992 21.9637C33.3227 22.173 33.1859 22.6488 33.3961 23.0254C33.6063 23.402 34.0812 23.5395 34.4586 23.3293L38.6609 20.9949C38.9086 20.8574 39.0625 20.5957 39.0625 20.3121V7.81211C39.0625 7.52305 38.9023 7.25664 38.6469 7.12148L25.3656 0.0902344C25.1375 -0.0300781 24.8625 -0.0300781 24.6344 0.0902344L11.3531 7.12148C11.0977 7.25664 10.9375 7.52305 10.9375 7.81211V20.3121C10.9375 20.5957 11.0914 20.8574 11.3391 20.9949ZM28.125 24.9996H29.3641L25 29.3637L20.6359 24.9996H21.875C22.3062 24.9996 22.6562 24.6504 22.6562 24.2184V19.5309H27.3438V24.2184C27.3438 24.6504 27.6938 24.9996 28.125 24.9996ZM36.6109 7.81211L25 13.959L19.7672 11.1887L31.375 5.04023L36.6109 7.81211ZM25 1.66523L29.7055 4.15664L18.0977 10.3059L13.3883 7.81211L25 1.66523Z" fill="black"/>
</g>
<defs>
<clipPath id="clip0_117_1569">
<rect width="50" height="50" fill="white"/>
</clipPath>
</defs>
</svg>
