<svg width="33" height="26" viewBox="0 0 33 26" fill="none" xmlns="http://www.w3.org/2000/svg">
<path d="M10.6549 25.9994C22.5975 25.9994 29.1306 16.1039 29.1306 7.53757C29.1306 7.26066 29.1306 6.9798 29.1187 6.70289C30.3906 5.78214 31.4884 4.6422 32.3605 3.33647C31.1724 3.86033 29.9134 4.20558 28.6242 4.36103C29.9821 3.54937 30.9992 2.27229 31.4863 0.767161C30.2105 1.52297 28.8141 2.05355 27.3584 2.33565C26.3797 1.29333 25.0846 0.602831 23.6737 0.371098C22.2628 0.139365 20.8149 0.379334 19.5542 1.05383C18.2935 1.72834 17.2904 2.79972 16.7003 4.10205C16.1101 5.40437 15.9659 6.86494 16.29 8.25753C13.7083 8.12808 11.1826 7.4574 8.87681 6.28899C6.57101 5.12059 4.53655 3.48055 2.9054 1.47526C2.07732 2.90545 1.82461 4.5972 2.19858 6.20696C2.57255 7.81672 3.54516 9.2238 4.91892 10.1425C3.88949 10.1075 2.88269 9.83108 1.97973 9.3355V9.4245C1.98151 10.9227 2.50053 12.3744 3.44907 13.5341C4.39762 14.6939 5.71749 15.4905 7.18561 15.7894C6.62836 15.943 6.05272 16.0195 5.47471 16.0169C5.06723 16.0181 4.66056 15.9804 4.26027 15.9042C4.67521 17.1939 5.48316 18.3215 6.57096 19.1291C7.65876 19.9367 8.97193 20.3838 10.3265 20.4079C8.02534 22.2153 5.18277 23.1956 2.25664 23.1908C1.74104 23.193 1.2258 23.1633 0.713867 23.1018C3.68374 24.9952 7.13279 26.0005 10.6549 25.9994V25.9994Z" fill="black"/>
</svg>
